<?xml version="1.0" encoding="UTF-8"?>
<svg width="552px" height="552px" viewBox="0 0 552 552" version="1.1" xmlns="http://www.w3.org/2000/svg" xmlns:xlink="http://www.w3.org/1999/xlink">
    <!-- Generator: Sketch 59.1 (86144) - https://sketch.com -->
    <title>Group 2</title>
    <desc>Created with Sketch.</desc>
    <g id="Page-1" stroke="none" stroke-width="1" fill="none" fill-rule="evenodd">
        <g id="Artboard" transform="translate(-112.000000, -57.000000)">
            <g id="Group-2" transform="translate(112.000000, 57.000000)">
                <circle id="Oval" fill="#00A64B" cx="276" cy="276" r="276"></circle>
                <g id="Group" transform="translate(107.000000, 135.000000)" fill-rule="nonzero">
                    <path d="M0,25.272 L79.704,25.272 C90.7200551,25.272 101.357949,26.2979897 111.618,28.35 C121.878051,30.4020103 131.00396,33.9119752 138.996,38.88 C146.98804,43.8480248 153.359976,50.5439579 158.112,58.968 C162.864024,67.3920421 165.24,78.0839352 165.24,91.044 C165.24,107.676083 160.650046,121.607944 151.47,132.84 C142.289954,144.072056 129.168085,150.875988 112.104,153.252 L173.016,254.664 L123.768,254.664 L70.632,157.464 L40.824,157.464 L40.824,254.664 L0,254.664 L0,25.272 Z M72.576,122.472 C78.4080292,122.472 84.2399708,122.202003 90.072,121.662 C95.9040292,121.121997 101.249976,119.82601 106.11,117.774 C110.970024,115.72199 114.911985,112.590021 117.936,108.378 C120.960015,104.165979 122.472,98.2800378 122.472,90.72 C122.472,84.0239665 121.068014,78.6240205 118.26,74.52 C115.451986,70.4159795 111.780023,67.3380103 107.244,65.286 C102.707977,63.2339897 97.6860275,61.8840032 92.178,61.236 C86.6699725,60.5879968 81.3240259,60.264 76.14,60.264 L40.824,60.264 L40.824,122.472 L72.576,122.472 Z M263.927195,21.384 L266.843195,21.384 C277.85925,21.384 289.145137,23.2739811 300.701195,27.054 C312.257253,30.8340189 322.139154,36.3959633 330.347195,43.74 L303.455195,73.872 C298.48717,68.471973 292.547229,64.2060157 285.635195,61.074 C278.72316,57.9419843 271.487233,56.376 263.927195,56.376 L263.927195,121.176 L265.223195,121.5 C274.29524,123.876012 283.205151,126.575985 291.953195,129.6 C300.701239,132.624015 308.477161,136.565976 315.281195,141.426 C322.085229,146.286024 327.593174,152.387963 331.805195,159.732 C336.017216,167.076037 338.123195,176.255945 338.123195,187.272 C338.123195,198.072054 336.179214,207.629958 332.291195,215.946 C328.403175,224.262042 323.111228,231.38997 316.415195,237.33 C309.719161,243.27003 301.88924,247.967983 292.925195,251.424 C283.96115,254.880017 274.295247,257.147995 263.927195,258.228 L263.927195,281.556 L246.431195,281.556 L246.431195,258.552 C232.175124,258.768001 218.51326,256.608023 205.445195,252.072 C192.37713,247.535977 180.875245,240.084052 170.939195,229.716 L200.423195,199.584 C205.607221,206.928037 212.303154,212.543981 220.511195,216.432 C228.719236,220.320019 237.35915,222.695996 246.431195,223.56 L246.431195,155.196 L244.811195,154.872 C235.73915,152.279987 227.099236,149.418016 218.891195,146.286 C210.683154,143.153984 203.393227,139.050025 197.021195,133.974 C190.649163,128.897975 185.627213,122.742036 181.955195,115.506 C178.283177,108.269964 176.447195,99.252054 176.447195,88.452 C176.447195,78.7319514 178.391175,69.9840389 182.279195,62.208 C186.167214,54.4319611 191.351163,47.6820286 197.831195,41.958 C204.311227,36.2339714 211.763153,31.6440173 220.187195,28.188 C228.611237,24.7319827 237.35915,22.5720043 246.431195,21.708 L246.431195,2.84217094e-14 L263.927195,2.84217094e-14 L263.927195,21.384 Z M246.431195,57.024 C238.871157,58.3200065 232.121225,61.5059746 226.181195,66.582 C220.241165,71.6580254 217.271195,78.299959 217.271195,86.508 C217.271195,91.4760248 218.081187,95.4719849 219.701195,98.496 C221.321203,101.520015 223.427182,104.111989 226.019195,106.272 C228.611208,108.432011 231.689177,110.213993 235.253195,111.618 C238.817213,113.022007 242.543175,114.587991 246.431195,116.316 L246.431195,57.024 Z M263.927195,223.56 L263.927195,160.38 C267.815214,161.676006 271.703175,163.079992 275.591195,164.592 C279.479214,166.104008 283.043179,167.939989 286.283195,170.1 C289.523211,172.260011 292.169185,174.959984 294.221195,178.2 C296.273205,181.440016 297.299195,185.435976 297.299195,190.188 C297.299195,194.940024 296.381204,199.205981 294.545195,202.986 C292.709186,206.766019 290.27921,210.005986 287.255195,212.706 C284.23118,215.406014 280.721215,217.673991 276.725195,219.51 C272.729175,221.346009 268.463218,222.695996 263.927195,223.56 Z" id="R$" fill="#FFFFFF"></path>
                    <path d="M263.927195,223.56 L263.927195,160.38 C267.815214,161.676006 271.703175,163.079992 275.591195,164.592 C279.479214,166.104008 283.043179,167.939989 286.283195,170.1 C289.523211,172.260011 292.169185,174.959984 294.221195,178.2 C296.273205,181.440016 297.299195,185.435976 297.299195,190.188 C297.299195,194.940024 296.381204,199.205981 294.545195,202.986 C292.709186,206.766019 290.27921,210.005986 287.255195,212.706 C284.23118,215.406014 280.721215,217.673991 276.725195,219.51 C272.729175,221.346009 268.463218,222.695996 263.927195,223.56 Z" id="Path" fill="#00A64B"></path>
                </g>
            </g>
        </g>
    </g>
</svg>